<svg width="12" height="18" fill="none" xmlns="http://www.w3.org/2000/svg"><path fill-rule="evenodd" clip-rule="evenodd" d="M10.82 13.1a.91.91 0 00-.063-1.247.82.82 0 00-1.195.06L6.15 15.855l-3.77-3.558a.824.824 0 00-1.2.06.914.914 0 00.064 1.253l3.764 3.553.009.008a1.641 1.641 0 002.39-.13l3.413-3.94z" fill="#838383"/><rect x="7.007" y="8.374" width="9" height="2.015" rx="1" transform="rotate(90 7.007 8.374)" fill="#838383"/><rect x="7.007" y="4.374" width="2" height="2.015" rx="1" transform="rotate(90 7.007 4.374)" fill="#838383"/><rect x="7.007" y=".374" width="2" height="2.015" rx="1" transform="rotate(90 7.007 .374)" fill="#838383"/></svg>