<svg width="30" height="10" fill="none" xmlns="http://www.w3.org/2000/svg"><path fill-rule="evenodd" clip-rule="evenodd" d="M24.726.215a.915.915 0 00-1.247.063.81.81 0 00.06 1.185l3.942 3.388-3.558 3.742a.815.815 0 00.06 1.191.92.92 0 001.253-.063l3.552-3.735.02-.02a1.62 1.62 0 00-.14-2.363L24.726.215z" fill="#838383"/><rect x="20" y="4" width="9" height="2" rx="1" fill="#838383"/><rect x="16" y="4" width="2" height="2" rx="1" fill="#838383"/><rect x="12" y="4" width="2" height="2" rx="1" fill="#838383"/><rect x="4" y="4" width="2" height="2" rx="1" fill="#838383"/><rect y="4" width="2" height="2" rx="1" fill="#838383"/><rect x="8" y="4" width="2" height="2" rx="1" fill="#838383"/></svg>