<svg width="16" height="16" fill="none" xmlns="http://www.w3.org/2000/svg"><path d="M13.25 2H10.5v-.5A1.5 1.5 0 009 0H7a1.5 1.5 0 00-1.5 1.5V2H2.75c-.69 0-1.25.56-1.25 1.25v1a.5.5 0 00.5.5h12a.5.5 0 00.5-.5v-1c0-.69-.56-1.25-1.25-1.25zM6.5 1.5A.5.5 0 017 1h2a.5.5 0 01.5.5V2h-3v-.5zM2.448 5.75a.157.157 0 00-.156.164l.413 8.657A1.498 1.498 0 004.203 16h7.593c.802 0 1.46-.627 1.498-1.429l.413-8.657a.156.156 0 00-.157-.164H2.448zM10 7a.5.5 0 111 0v6.5a.5.5 0 11-1 0V7zM7.5 7a.5.5 0 111 0v6.5a.5.5 0 11-1 0V7zM5 7a.5.5 0 111 0v6.5a.5.5 0 11-1 0V7z" fill="#fff" fill-opacity=".5"/></svg>