<svg width="18" height="18" fill="none" xmlns="http://www.w3.org/2000/svg"><path d="M17.6 7.474l-2.107-.517a6.8 6.8 0 00-.443-1.075l1.076-1.793a.525.525 0 00-.074-.644l-1.497-1.497a.525.525 0 00-.644-.074L12.118 2.95a6.796 6.796 0 00-1.075-.443L10.536.4a.541.541 0 00-.516-.4H7.91a.541.541 0 00-.517.4l-.506 2.107a6.731 6.731 0 00-1.076.443L4.018 1.874a.525.525 0 00-.643.074L1.877 3.445a.525.525 0 00-.073.644l1.075 1.793a6.814 6.814 0 00-.443 1.075l-2.035.517A.52.52 0 000 7.98v2.11a.52.52 0 00.4.506l2.036.517c.116.369.264.728.443 1.076l-1.075 1.793a.525.525 0 00.073.643l1.498 1.498c.169.168.432.2.643.073l1.793-1.075c.348.179.707.327 1.076.443l.506 2.035A.543.543 0 007.91 18h2.11a.541.541 0 00.516-.4l.507-2.036a6.814 6.814 0 001.075-.443l1.793 1.075a.525.525 0 00.644-.073l1.497-1.498a.525.525 0 00.074-.643l-1.076-1.793c.18-.348.327-.707.443-1.076l2.106-.517A.52.52 0 0018 10.09V7.98a.52.52 0 00-.4-.506zm-8.635 4.198a2.638 2.638 0 010-5.274 2.638 2.638 0 010 5.274z" fill="#000" fill-opacity=".5"/></svg>