<svg width="20" height="20" fill="none" xmlns="http://www.w3.org/2000/svg"><path d="M19.463 4.256a.626.626 0 00-.387-.578L10.238.047a.626.626 0 00-.476 0L.924 3.677a.626.626 0 00-.388.58v11.487c0 .253.154.482.388.578l8.838 3.631c.15.062.32.063.475 0 .008-.002-.327.135 8.839-3.63a.626.626 0 00.387-.58V4.257zM10 7.263L6.744 5.925l7.037-3.07 3.474 1.428L10 7.263zm-8.212-2.02l2.81 1.154v3.256a.626.626 0 001.25 0V6.91l3.526 1.448V18.44l-7.586-3.117V5.242zM10 1.302l2.17.89-7.038 3.07-2.387-.98L10 1.303zm.626 7.056l7.586-3.117v10.082l-7.586 3.117V8.359z" fill="#838383"/></svg>