<svg width="18" height="18" fill="none" xmlns="http://www.w3.org/2000/svg"><path d="M15.253 4.8h-4.022a2.919 2.919 0 00.679-1.873A2.93 2.93 0 008.983 0a2.93 2.93 0 00-2.927 2.927c0 .712.255 1.365.679 1.873H2.713L.21 18h17.544L15.253 4.8zm-6.27-3.745c1.032 0 1.872.84 1.872 1.872 0 1.033-.84 1.873-1.872 1.873A1.875 1.875 0 017.11 2.927c0-1.032.84-1.872 1.873-1.872zm-5.397 4.8H14.38l2.102 11.09H1.484l2.102-11.09z" fill="#838383"/><path d="M9.004 9.302H7.807l-1.674 1.671V9.302h-.86v4.215h.86v-1.44l.434-.424 1.311 1.864h1.11l-1.806-2.455 1.822-1.76z" fill="#838383"/><path d="M10.706 12h1.137v.463a1.76 1.76 0 01-.371.195 1.55 1.55 0 01-.584.115c-.226 0-.444-.05-.645-.15a.96.96 0 01-.44-.441c-.106-.206-.16-.47-.16-.786 0-.255.046-.494.135-.71.05-.12.122-.232.212-.333a.964.964 0 01.35-.237c.15-.062.33-.093.54-.093.17 0 .327.03.465.087a.72.72 0 01.299.216c.073.095.136.232.187.408l.049.164.792-.217-.043-.166a1.858 1.858 0 00-.325-.698 1.434 1.434 0 00-.603-.432 2.203 2.203 0 00-.823-.149 2.31 2.31 0 00-1.103.258 1.747 1.747 0 00-.754.805 2.575 2.575 0 00-.253 1.13c0 .405.086.779.256 1.11.175.339.436.601.777.78a2.498 2.498 0 002.001.101 3.08 3.08 0 00.825-.479l.065-.052v-1.694l-1.986.004V12z" fill="#838383"/></svg>