<svg width="20" height="20" fill="none" xmlns="http://www.w3.org/2000/svg"><path fill-rule="evenodd" clip-rule="evenodd" d="M8.23 3.18a2.084 2.084 0 003.54 0l4.087 1.504a2.092 2.092 0 000 .632L11.77 6.82a2.084 2.084 0 00-3.54 0L4.143 5.316a2.089 2.089 0 000-.632L8.23 3.18zM3.235 4.513a.42.42 0 00.04.111 1.245 1.245 0 010 .753.42.42 0 00-.04.11 1.252 1.252 0 01-1.155.763A1.252 1.252 0 01.833 5a1.252 1.252 0 012.402-.487zm.619-.61L7.94 2.4A2.086 2.086 0 0110 0a2.086 2.086 0 012.058 2.399l4.087 1.504A2.084 2.084 0 0120 5a2.088 2.088 0 01-1.667 2.041v5.918A2.088 2.088 0 0120 15a2.086 2.086 0 01-2.083 2.083 2.085 2.085 0 01-1.77-.986l-4.088 1.504A2.086 2.086 0 0110 20a2.086 2.086 0 01-2.059-2.399l-4.086-1.504a2.084 2.084 0 01-1.77.986A2.086 2.086 0 010 15c0-1.006.717-1.848 1.667-2.041V7.04A2.088 2.088 0 010 5c0-1.148.935-2.083 2.083-2.083a2.08 2.08 0 011.77.986zM2.5 7.041v5.918a2.087 2.087 0 011.643 2.357L8.23 16.82a2.09 2.09 0 011.353-.945V9.958A2.088 2.088 0 017.94 7.601L3.854 6.097A2.09 2.09 0 012.5 7.04zM16.667 5c0-.13.02-.257.057-.376a.433.433 0 00.042-.112A1.25 1.25 0 1117.92 6.25h-.007a1.252 1.252 0 01-1.148-.763.414.414 0 00-.04-.111A1.245 1.245 0 0116.666 5zm-.52 1.097a2.09 2.09 0 001.353.944v5.918a2.088 2.088 0 00-1.643 2.357L11.77 16.82a2.09 2.09 0 00-1.353-.945V9.958a2.088 2.088 0 001.642-2.357l4.087-1.504zM8.848 2.57a1.25 1.25 0 002.301.001.41.41 0 01.042-.111A1.251 1.251 0 0010 .834 1.252 1.252 0 008.808 2.46a.422.422 0 01.04.11zm2.319 4.916a.538.538 0 00.024.055 1.251 1.251 0 01-1.189 1.626h-.007A1.252 1.252 0 018.808 7.54a.418.418 0 00.041-.112 1.252 1.252 0 012.302.001.41.41 0 00.017.056zm5.597 8a.44.44 0 00-.04-.11 1.252 1.252 0 011.19-1.626l-1.15 1.737zM3.333 15c0 .131-.02.258-.058.377L2.081 13.75h.002c.69 0 1.25.56 1.25 1.25zm-.058.377l-.04.11a.419.419 0 01.04-.11zm7.876 2.053A1.252 1.252 0 0010 16.667h-.003a1.252 1.252 0 00-1.148.762.417.417 0 01-.041.112A1.252 1.252 0 0010 19.167a1.251 1.251 0 001.192-1.626.42.42 0 01-.04-.111zm0 0l-2.343.11 1.19-.873 1.153.763z" fill="#838383"/></svg>