<svg width="18" height="18" fill="none" xmlns="http://www.w3.org/2000/svg"><path d="M13.57 8.086a.703.703 0 100-1.406.703.703 0 000 1.406z" fill="#838383"/><path d="M15.188 1.406h-.915V.703a.703.703 0 10-1.406 0v.703H9.668V.703a.703.703 0 10-1.406 0v.703H5.098V.703a.703.703 0 10-1.407 0v.703h-.878A2.816 2.816 0 000 4.22v10.968A2.816 2.816 0 002.813 18H8.19a.703.703 0 100-1.406H2.812a1.408 1.408 0 01-1.406-1.407V4.22c0-.776.631-1.407 1.407-1.407h.878v.704a.703.703 0 101.407 0v-.704h3.164v.704a.703.703 0 101.406 0v-.704h3.2v.704a.703.703 0 101.405 0v-.704h.915c.775 0 1.406.631 1.406 1.407v4.008a.703.703 0 101.406 0V4.219a2.816 2.816 0 00-2.813-2.813z" fill="#838383"/><path d="M13.746 9.492a4.259 4.259 0 00-4.254 4.254A4.259 4.259 0 0013.746 18 4.259 4.259 0 0018 13.746a4.259 4.259 0 00-4.254-4.254zm0 7.102a2.851 2.851 0 01-2.848-2.848 2.851 2.851 0 012.848-2.848 2.851 2.851 0 012.848 2.848 2.851 2.851 0 01-2.848 2.848z" fill="#838383"/><path d="M14.766 13.043h-.317v-.738a.703.703 0 00-1.406 0v1.441c0 .388.315.703.703.703h1.02a.703.703 0 100-1.406zm-4.254-4.957a.703.703 0 100-1.406.703.703 0 000 1.406zm-3.059 3.059a.703.703 0 100-1.407.703.703 0 000 1.407zM4.395 8.086a.703.703 0 100-1.406.703.703 0 000 1.406zm0 3.059a.703.703 0 100-1.407.703.703 0 000 1.407zm0 3.058a.703.703 0 100-1.406.703.703 0 000 1.406zm3.058 0a.703.703 0 100-1.406.703.703 0 000 1.406zm0-6.117a.703.703 0 100-1.406.703.703 0 000 1.406z" fill="#838383"/></svg>