<svg width="30" height="30" fill="none" xmlns="http://www.w3.org/2000/svg"><g clip-path="url(#clip0)" fill="#fff" fill-opacity=".5"><path d="M17.924 15c0 1.586-1.272 2.871-2.841 2.871-1.57 0-2.842-1.285-2.842-2.871s1.272-2.871 2.841-2.871c1.57 0 2.842 1.285 2.842 2.871z"/><path d="M21.728 9.92a2.671 2.671 0 00-.638-.99 2.637 2.637 0 00-.98-.644c-.3-.118-.752-.258-1.583-.297-.899-.041-1.169-.05-3.445-.05s-2.546.009-3.444.05c-.831.039-1.283.179-1.583.297a2.64 2.64 0 00-.98.644 2.673 2.673 0 00-.638.99c-.117.304-.256.76-.293 1.6-.041.908-.05 1.18-.05 3.48s.009 2.573.05 3.481c.037.84.176 1.296.293 1.6.137.373.354.712.638.99.275.286.61.506.98.644.3.118.752.258 1.583.297.899.041 1.168.05 3.444.05 2.277 0 2.546-.009 3.445-.05.831-.039 1.282-.179 1.583-.297a2.838 2.838 0 001.618-1.635c.116-.303.255-.76.293-1.599.041-.908.05-1.18.05-3.48s-.009-2.573-.05-3.481c-.038-.84-.176-1.296-.293-1.6zm-6.646 9.503c-2.417 0-4.377-1.98-4.377-4.423s1.96-4.423 4.377-4.423c2.418 0 4.378 1.98 4.378 4.423s-1.96 4.423-4.378 4.423zm4.55-7.987a1.028 1.028 0 01-1.022-1.034c0-.57.458-1.033 1.023-1.033s1.023.463 1.023 1.033c0 .571-.458 1.034-1.023 1.034z"/><path d="M15.082 0C6.885 0 .237 6.717.237 15c0 8.283 6.648 15 14.845 15 8.198 0 14.846-6.717 14.846-15 0-8.283-6.648-15-14.846-15zm8.473 18.551c-.04.917-.185 1.543-.396 2.09a4.382 4.382 0 01-2.493 2.52c-.542.213-1.162.358-2.069.4-.909.042-1.2.052-3.514.052-2.316 0-2.606-.01-3.515-.052-.907-.042-1.527-.187-2.07-.4a4.173 4.173 0 01-1.51-.994 4.225 4.225 0 01-.982-1.525c-.21-.548-.355-1.174-.396-2.09-.042-.92-.052-1.213-.052-3.552 0-2.34.01-2.633.051-3.551.042-.917.186-1.543.396-2.09.214-.576.55-1.096.984-1.526a4.171 4.171 0 011.51-.994c.542-.213 1.162-.358 2.069-.4.909-.042 1.2-.052 3.514-.052 2.316 0 2.606.01 3.515.052.907.042 1.527.187 2.07.4a4.175 4.175 0 011.51.994c.433.43.768.95.982 1.525.211.548.355 1.174.397 2.09.041.92.05 1.213.05 3.552 0 2.34-.009 2.633-.05 3.551z"/></g><defs><clipPath id="clip0"><path fill="#fff" transform="translate(.237)" d="M0 0h29.691v30H0z"/></clipPath></defs></svg>
