<svg width="10" height="10" fill="none" xmlns="http://www.w3.org/2000/svg"><g clip-path="url(#clip0)"><path d="M.246 5.594l4.16 4.16a.84.84 0 001.188-1.189L2.029 5l3.565-3.565A.84.84 0 004.406.247l-4.16 4.16a.84.84 0 000 1.187zm5.002.252l3.302 3.48a.82.82 0 001.201 0 .929.929 0 000-1.265L7.05 5.213l2.702-2.848a.929.929 0 000-1.266.82.82 0 00-1.201 0L5.248 4.58a.929.929 0 000 1.266z" fill="#000" fill-opacity=".2"/></g><defs><clipPath id="clip0"><path fill="#fff" transform="rotate(-180 5 5)" d="M0 0h10v10H0z"/></clipPath></defs></svg>