<svg width="48" height="48" fill="none" xmlns="http://www.w3.org/2000/svg"><g clip-path="url(#clip0)" fill="#1E4A3B"><path d="M14.278 20.86a8.465 8.465 0 002.153 3.632l3.019 3.019a3.847 3.847 0 002.737 1.134h3.628a3.847 3.847 0 002.737-1.134l3.02-3.019a8.463 8.463 0 002.152-3.632c1.928-.218 3.438-1.841 3.438-3.828 0-1.22-.585-2.367-1.548-3.093V7.21c0-3.975-3.235-7.21-7.21-7.21h-8.807c-3.975 0-7.21 3.235-7.21 7.21v6.729a3.883 3.883 0 00-1.548 3.093c0 1.987 1.51 3.61 3.44 3.828zm18.239-2.39c0 1.862-.725 3.61-2.041 4.928l-3.02 3.018a2.33 2.33 0 01-1.641.68h-3.63c-.61 0-1.208-.247-1.641-.68l-3.02-3.018a6.922 6.922 0 01-2.04-4.927v-2.426a6.05 6.05 0 001.549.213c1.167 0 1.978-.333 2.836-.686 1.034-.424 2.103-.862 4.132-.862 2.028 0 3.097.438 4.13.862.86.353 1.67.686 2.837.686a6.02 6.02 0 001.549-.214v2.426zm-1.549-3.76c-.86 0-1.473-.251-2.249-.57-1.062-.436-2.384-.979-4.718-.979-2.335 0-3.657.543-4.72.98-.775.318-1.387.569-2.248.569-1.266 0-2.276-.548-2.838-.939.862-1.127 3.517-3.707 9.806-3.707 6.298 0 8.952 2.588 9.808 3.71-.557.39-1.562.936-2.84.936zm4.646 2.322a2.318 2.318 0 01-1.585 2.191 8.7 8.7 0 00.036-.753v-3.04c.191-.106.362-.21.514-.313a2.325 2.325 0 011.035 1.915zM13.936 7.21a5.667 5.667 0 015.661-5.662h8.806a5.667 5.667 0 015.662 5.661v4.58c-1.583-1.46-4.634-3.273-10.064-3.273s-8.482 1.813-10.065 3.273V7.21zm-.514 7.908c.153.102.323.206.514.313v3.04c0 .253.015.504.037.753a2.32 2.32 0 01-1.585-2.192c0-.772.4-1.485 1.034-1.914z"/><path fill-rule="evenodd" clip-rule="evenodd" d="M37.382 31.082c3 1 5.188 3.56 5.707 6.678L44.795 48h-6.477a15.01 15.01 0 01.585 4.161c0 8.285-6.716 15-15 15-8.284 0-15-6.715-15-15 0-1.444.204-2.84.585-4.161H2.709l1.708-10.24a8.499 8.499 0 015.707-6.678l6.661-2.22v-.991h1.549v1.274c.428.473 1.951 1.823 5.419 1.823 3.467 0 4.991-1.35 5.42-1.823V27.87h1.548v.99l6.66 2.22zm-25.628 12.28l.386-3.878v-7.442l5.176-1.725c.764.766 2.693 2.2 6.437 2.2s5.672-1.434 6.436-2.2l5.177 1.725.004 7.52.334 3.338a14.974 14.974 0 00-11.801-5.739 14.98 14.98 0 00-12.149 6.2zM11.107 48a13.442 13.442 0 00-.656 4.161c0 7.43 6.023 13.452 13.452 13.452 7.43 0 13.452-6.023 13.452-13.452 0-1.452-.23-2.85-.656-4.161h-1.393c.45 1.271.694 2.64.694 4.065 0 6.734-5.46 12.193-12.194 12.193-6.734 0-12.193-5.46-12.193-12.193 0-1.426.244-2.794.694-4.065h-1.2zm1.872-1.548h-1.26c2.148-4.575 6.796-7.742 12.184-7.742 5.359 0 9.986 3.133 12.148 7.668l.008.074h-1.425a12.193 12.193 0 00-10.828-6.581c-4.71 0-8.797 2.67-10.828 6.58zM13.965 48a10.613 10.613 0 00-.804 4.065c0 5.608 4.337 10.203 9.84 10.615V48h-9.036zm6.293-1.548h-5.499a10.685 10.685 0 011.686-2.077l3.813 2.077zm4.899 0h-1.92l-5.61-3.056a10.596 10.596 0 016.18-1.977c2.213 0 4.27.676 5.973 1.833l-4.623 3.2zM25.111 48l-.9.595v14.107c5.691-.213 10.24-4.894 10.24-10.637 0-1.44-.286-2.813-.804-4.065h-8.536zm7.741-1.548h-5.397l3.476-2.296a10.7 10.7 0 011.921 2.296zm4.925 0a15.1 15.1 0 00-.213-.492l-.035-.354 5.189-.649.248 1.495h-5.189zm-33.24 0H9.89l.084-.846-5.188-.649-.249 1.495zm.503-3.024l5.088.637.466-4.658-.003-6.848a6.955 6.955 0 00-4.649 5.455l-.902 5.414zM36.914 32.56v6.924l.46 4.582 5.09-.636-.902-5.415a6.95 6.95 0 00-4.648-5.456z"/></g><defs><clipPath id="clip0"><path fill="#fff" d="M0 0h48v48H0z"/></clipPath></defs></svg>