<svg width="48" height="48" fill="none" xmlns="http://www.w3.org/2000/svg"><path d="M43.38 37.76a8.496 8.496 0 00-5.708-6.678l-6.66-2.22v-.991h-1.55v1.452l-1.155 4.623-3.127-3.752h-2.274l-3.127 3.752-1.155-4.623v-1.452h-1.548v.99l-6.662 2.22c-3 1-5.187 3.56-5.707 6.68L3 48h42.086L43.38 37.76zm-23.105 8.692h-8.537l.689-6.89-1.541-.155-.705 7.045H4.83l1.406-8.436a6.953 6.953 0 014.67-5.465l6.397-2.133 1.715 6.862 1.746-2.095.924 1.386-1.412 9.88zm5.973 0h-4.409l1.464-10.248-1.506-2.26 1.834-2.202h.823l1.835 2.202-1.506 2.26 1.464 10.248zm11.657 0l-.704-7.045-1.54.154.688 6.89h-8.538L26.4 36.57l.924-1.386 1.745 2.095 1.716-6.862 6.397 2.133a6.953 6.953 0 014.67 5.465l1.406 8.437h-5.353z" fill="#1E4A3B"/><path d="M14.321 20.86a8.463 8.463 0 002.153 3.632l3.019 3.02a3.844 3.844 0 002.737 1.133h3.628a3.845 3.845 0 002.737-1.133l3.02-3.02a8.468 8.468 0 002.152-3.632c1.928-.218 3.438-1.841 3.438-3.828a3.86 3.86 0 00-1.572-3.097h.023V9.29a3.877 3.877 0 00-3.293-3.827C31.198 2.22 28.08 0 24.601 0h-.557C17.64 0 12.43 5.21 12.43 11.613v2.322h.024a3.857 3.857 0 00-1.573 3.097c0 1.987 1.51 3.61 3.44 3.828zm18.239-2.39a6.923 6.923 0 01-2.041 4.928l-3.02 3.019c-.431.432-1.03.68-1.641.68h-3.63a2.34 2.34 0 01-1.641-.68l-3.02-3.02a6.922 6.922 0 01-2.04-4.926V14.71h3.042a13.89 13.89 0 009.174-3.427l.237.395a6.278 6.278 0 004.58 2.98v3.812zm3.096-1.438a2.318 2.318 0 01-1.584 2.191c.021-.248.036-.5.036-.752v-3.619a2.32 2.32 0 011.549 2.18zm-21.677-5.42c0-5.549 4.515-10.064 10.065-10.064h.557a6.727 6.727 0 016.44 4.858l.16.562h.585a2.325 2.325 0 012.322 2.322v3.95a3.867 3.867 0 00-.774-.079 4.719 4.719 0 01-4.027-2.28l-1.24-2.065-.7.701a12.36 12.36 0 01-8.798 3.644h-3.816c-.264 0-.524.027-.774.079v-1.627zm0 3.24v3.619c0 .253.015.504.037.753a2.32 2.32 0 01-1.585-2.192c0-1.008.65-1.86 1.548-2.18z" fill="#1E4A3B"/></svg>