<svg width="442" height="128" xmlns="http://www.w3.org/2000/svg"><path fill="#FEFEFE" stroke="#FEFEFE" opacity=".875" d="M100.5 0l.5 2.5h-1l.5-2.5zm102 0l20.5.5-20.5.5V0zm60 0l20.5.5-21 .5-.5 2-.5-1.5 1.5-1.5zm59 0l32.5.5-32.5.5V0zm-129 3l-2 3 2-3zm242 0l3 4-3-4zm-323 1l1 2-1-2zm259 0l1 2-1-2zm-255 3l2 3-2-3zm221 6l18.5.5-18.5.5v-1zm24 2l2 3-2-3zm-317 12l25.5.5-25.5.5v-1zm391 9l.5 12.5h-1l.5-12.5zm-63 4v3q-3-1.5 0-3zm2 3l4 5-4-5zm-178 2l21.5.5-21.5.5v-1zm167 6l2 3-2-3zm-279 2l.5 2H66.5l-.5 1.5h-1l1.5-2.5h16l1-1zm297 12l.5 2.5h-1l.5-2.5zm-318 7l42.5.5-42.5.5v-1zm274 0l19.5.5-19.5.5v-1zm41 3l-1 2 1-2zm-5 5l-1 2 1-2zm-312 1l46.5.5-46.5.5v-1zm112 2l.5 2 14 .5-15 .5.5-3zm67 0l.5 3-15-.5 14-.5.5-2zm58 0l.5 2 14 .5-13.5.5-1-3zm-38 1l-1 2-13.5-.5 13.5-.5 1-1zm62 1l33.5.5-33.5.5v-1zm69 0l51.5.5-51.5.5v-1zm-221 15l21.5.5-21.5.5v-1zm28 0l11.5.5-11.5.5v-1zm33 0l6.5.5-7.5 1.5 1-2zm20.5 0h7v10h9v-10h6.5v1H268v8.5l-1.5 1.5h-8l-1.5-1.5V101l-5 .5v25h-1V100zm58.5 0h6.5v10.5l.5 1.5-1.5-1.5V101h-5.5v-1zm18 0l3.5.5-3.5.5v-1zm17 0l6.5.5-7.5 1.5 1-2zm20.5 0l13 .5-12 .5-.5 26-.5-27zm27.5 0l17.5.5-17.5.5v-1zm-392 1l.5 2.5H0l.5-2.5zm324 0l-2 3 2-3zm-110 1l1 2-1-2zm71 0l-2 3 2-3zm17 0l.5 6-2-.5 1.5-5.5zm116 0l-1 2 1-2zm-20 3l.5 21.5h-1l.5-21.5zm25 0l-1 2 1-2zm-423 1l.5 2.5H0l.5-2.5zm94 0l.5 3-50-.5 49-.5.5-2zm116 1l.5 3.5h-1l.5-3.5zm23 1l-1 2 1-2zm114 0l-1 2 1-2zm-28 1l-1 2 1-2zm120 1l.5 7.5h-1l.5-7.5zm-19 1l.5 5.5h-1l.5-5.5zm-140 1l.5 3.5h-1l.5-3.5zm-65 2l-2 3 2-3zm108 0l1 2-1-2z"/><path fill="#FEFEFE" stroke="#FEFEFE" opacity=".875" d="M257.5 115l.5 11.5h-1l.5-11.5zm10 0l.5 11.5h-1l.5-11.5zm48 1l.5 10.5h-1l.5-10.5zm2 0l1 2-1-2zm-312 3l5 6-5-6zm296 1q2.8-.6 1.5 5.5h-1l-.5-5.5zm130 0l-2 3 2-3zm-202 1l7.5.5-8.5 1.5 1-2zm114 0l8.5.5-8.5.5-1 1 1-2zm94 1l-3 4 3-4zm-154 1l2 3-2-3zm7 4l7.5.5-7.5.5v-1zm133 0l2.5.5-2.5.5v-1z"/><path fill="#FFF" stroke="#FFF" d="M21 0h68.5L91 1.5l9 49 5 21.5-43-.5L66 55h17.5l.5-1.5-2-5-5-29-1.5-1.5h-39L35 19.5l-21 105-1.5 1.5Q1.8 119.8 0 104.5L21 0zm80 1q11.9 1.8 18 10.5l4 10 9 49 2 5 10 51.5h-17.5l-.5-3.5-7-30-5-29-2-5-4-24-2-5L101 1zm96.5 0h25l.5 3.5L239 85h-13.5l-.5-3.5-5-22.5h-27.5l-.5 2.5-5 23.5h-14v-4.5l13-65Q187.5 7 193.5 3l4-2zm3.5 12l-6 30 1 3h21l-6-30v-3h-10zm61-12h24.5q5.8 1.3 8.5 5.5l4 11L312 85h-13.5l-.5-1.5L284 13h-9.5l-.5 1.5-7 30-7 39-1.5 1.5h-13l-.5-1.5L262 1zm59 0h39.5q9.4 1.6 14.5 7.5l4 10v9l-2 7-4.5 5.5-2.5 1.5 8 7 3 8v8l-2 8-5.5 7.5-12 5H321V1zm15 12v23h22l4-2 2-4q2-9-1-12l-2-3-6-2h-19zm0 36v24h20l8-3 2-4q2-9-1-12l-6-5h-23zm54-48h40.5l8.5 7.5 2 5.5h-36v22h29v13h-29v23h37v13h-52V1z"/><path fill="#FFF" stroke="#FFF" d="M43 28h25.5l.5 3.5L72 45H57.5q-1 0-.5 4.5L45 109h49.5l.5-2.5-2-7.5H57.5l-.5-3.5L60 82h46.5l.5 2.5 9 42.5H23.5l-.5-1.5 10-44 4-24 2-5L43 28zm248.5 72q7.3-.8 10.5 2.5 1.9 5.4-1.5 4.5l-6-3-5.5 2q-3 3.3-2 11.5l4.5 5.5q7.6.9 10.5-2v5h-1.5l-1 1h-11l-6.5-5.5-1-12 5.5-7.5 5-2zm133 0q9-.5 12.5 4.5 3.8 4.7 2 15l-5.5 6.5-7 2-7-2-3.5-3.5q-3-4-2-12 1.3-5.7 5.5-8.5l5-2zm2.5 4l-3 1-4 7 1 8q1 4 9 3l3-4q2-8-1-11l-5-4zm-258-3h21.5l.5 4h-8v21.5l-.5.5H177v-21.5l-.5-.5H169v-4zm28 0h14.5l4.5 3.5 1 7-4.5 5.5-9.5 1v9h-6v-26zm6 4v9l7-1 1-5q-2-4-8-3zm27.5-4q7-1.5 6.5 1.5l8 24.5h-6v-2.5l-2.5-3.5q-6.7-1.7-8.5 1.5l-1 4.5h-5.5l-.5-1.5 9.5-24.5zm3.5 7l-4 8 1 1h5l-2-9zm18-7h5v8.5l1.5 1.5h8l1.5-1.5V101h5.5l.5.5V127h-6v-12h-11v12h-5v-26zm57 0h6v9.5q1.3 2.8 2.5.5l2.5-1.5q1.3-5.7 5.5-8.5 8.3-2.5 5.5 5h-4v1.5l-4 7 9 12-6.5.5-8-11-2.5.5V127h-6v-26zm35.5 0q7-1.5 6.5 1.5l8 24.5h-6v-3.5l-1-2.5h-8.5l-1.5 1.5-1 4.5-6-.5 9.5-25.5zm3.5 7l-4 8 1 1h5l-2-9zm18-7h14.5l4.5 3.5 1 5-4.5 7.5-9.5 1v9h-6v-26zm6 4v9h5q3-2 2-8l-7-1zm20-4h17.5l.5 4h-12v21.5l-.5.5H392v-26z"/><path fill="#F8F8F8" stroke="#F8F8F8" opacity=".357" d="M20.5 0l.5 2.5h-1l.5-2.5zm81 0l2.5.5-2.5.5V0zm96 0l4.5.5-4.5.5V0zm26 0l.5 2.5h-1l.5-2.5zm60 0l3.5.5-3.5.5V0zm71 0l6.5.5-6.5.5V0zM389 0l42 .5-41 .5-.5 85-.5-86zM105.5 1l3.5 1.5-1.5.5-2-2zm89 0l1.5.5-6 4-1.5 2.5.5-1.5 3.5-4.5 2-1zm169 0l2.5.5-2.5.5V1zm69 0l6.5 5.5 1 2-2-1-3.5-4.5-2-2zm-341 1l.5 2.5h-1l.5-2.5zm200 0l4 5-4-5zm-191 1l.5 2.5h-1l.5-2.5zm160 0l.5 2.5h-1l.5-2.5zm-148 1l6.5 5.5 3 6h-1L115.5 7l-3-3zm259 0q5.1 2.4 6.5 8.5h-1L371.5 4zm-352 1l.5 2.5h-1l.5-2.5zm205 0l.5 2.5h-1l.5-2.5zm-132 1l.5 3.5h-1l.5-3.5zm9 2l.5 2.5h-1l.5-2.5zm158 0l.5 2.5h-1l.5-2.5zm-241 2l.5 2.5h-1l.5-2.5zm207 0l.5 2.5h-1l.5-2.5zm-132 1l.5 2.5h-1l.5-2.5zm93 0l.5 2.5h-1l.5-2.5zm-84 2l.5 2.5h-1l.5-2.5zm100 0q6.8-1.7 8.5 1.5l-.5 1.5-.5-2h-8v2.5h-1l1.5-3.5zm56 0l.5 2.5h-1l.5-2.5zm15.5 0l9 .5-8.5 1.5-.5-2zM17.5 14l.5 2.5h-1l.5-2.5zm319 0l.5 21 20 .5-21 .5.5-22zm19 0l2.5.5-2.5.5v-1z"/><path fill="#F8F8F8" stroke="#F8F8F8" opacity=".357" d="M405.5 14l.5 21 29 .5-30 .5.5-22zm-220 1l.5 2.5h-1l.5-2.5zm41 0l.5 2.5h-1l.5-2.5zm57 0l.5 2.5h-1l.5-2.5zm76 0l3 4-3-4zm-265 1l.5 2.5h-1l.5-2.5zm179 0l.5 3.5h-1l.5-3.5zm26 1l.5 2.5h-1l.5-2.5zm-263 1l39.5.5-39.5.5v-1zm67 0l.5 2.5h-1l.5-2.5zm108 0l.5 2.5h-1l.5-2.5zm46 0l.5 2.5h-1l.5-2.5zm-241 1l.5 2.5h-1l.5-2.5zm184 0l.5 2.5h-1l.5-2.5zm179 0l.5 8.5h-1l.5-8.5zm-344 1l.5 2.5h-1l.5-2.5zm149 0l.5 2.5h-1l.5-2.5zm43 0l.5 2.5h-1l.5-2.5zm57 0l.5 2.5h-1l.5-2.5zm79 0l.5 8.5h-1l.5-8.5zm-287 1l.5 2.5h-1l.5-2.5zm19 0l.5 2.5h-1l.5-2.5zm28 0l.5 2.5h-1l.5-2.5zm149 0l.5 3.5h-1l.5-3.5zm28 1l.5 2.5h-1l.5-2.5zm-196 1l.5 2.5h-1l.5-2.5zm108 0l.5 2.5h-1l.5-2.5zm44 0l.5 2.5h-1l.5-2.5zm-241 1l.5 2.5h-1l.5-2.5zm184 0l.5 2.5h-1l.5-2.5zm-165 1l.5 2.5h-1l.5-2.5zm149 0l.5 2.5h-1l.5-2.5zm45 0l.5 2.5h-1l.5-2.5zm57 0l.5 2.5h-1l.5-2.5zm-208 1l.5 2.5h-1l.5-2.5zm19 0l.5 2.5h-1l.5-2.5zm28 0l.5 2.5h-1l.5-2.5zm147 0l.5 3.5h-1l.5-3.5zm-202 1l.5 2.5h-1l.5-2.5zm36 0l.5 2.5h-1l.5-2.5zm196 0l.5 2.5h-1l.5-2.5zm-88 1l.5 2.5h-1l.5-2.5zm42 0l.5 2.5h-1l.5-2.5zm-241 1l.5 2.5h-1l.5-2.5zm28 0l.5 2.5h-1l.5-2.5zm156 0l.5 2.5h-1l.5-2.5zm-165 1l.5 2.5h-1l.5-2.5zm149 0l.5 2.5h-1l.5-2.5zm47 0l.5 2.5h-1l.5-2.5zm57 0l.5 2.5h-1l.5-2.5zm76 0l.5 1.5-4.5 3.5v-1l3.5-2.5.5-1.5zm16 0l.5 2.5-7 9 .5 1.5-1.5-1.5 5-5 2.5-6.5zm-300 1l.5 2.5h-1l.5-2.5zm19 0l.5 2.5h-1l.5-2.5zm28 0l.5 2.5h-1l.5-2.5zm145 0l.5 3.5h-1l.5-3.5zm-200 1l.5 3.5h-1l.5-3.5zm36 0l.5 2.5h-1l.5-2.5zm196 0l.5 2.5h-1l.5-2.5zm-261 1l.5 2.5h-1l.5-2.5zm156 0l.5 3.5h-1l.5-3.5zm17 0l.5 2.5h-1l.5-2.5zm40 0l.5 2.5h-1l.5-2.5zm-241 1l.5 2.5h-1l.5-2.5zm19 1l.5 2.5h-1l.5-2.5zm149 0l.5 2.5h-1l.5-2.5zm49 0l.5 2.5h-1l.5-2.5zm57 0l.5 2.5h-1l.5-2.5zm-208 1l.5 2.5h-1l.5-2.5zm19 0l.5 2.5h-1l.5-2.5zm28 0l.5 2.5h-1l.5-2.5zm143 0l.5 2.5h-1l.5-2.5zm-198 1l.5 3.5h-1l.5-3.5zm36 0l.5 2.5h-1l.5-2.5zm196 0l.5 2.5h-1l.5-2.5zm-263 1l.5 2.5h-1l.5-2.5zm156 0l.5 3.5h-1l.5-3.5zm19 0l.5 2.5h-1l.5-2.5zm38 0l.5 2.5h-1l.5-2.5zm-241 1l.5 2.5h-1l.5-2.5zm19 1l.5 2.5h-1l.5-2.5zm149 0l.5 2.5h-1l.5-2.5zm51 0l.5 2.5h-1l.5-2.5zm57 0l.5 2.5h-1l.5-2.5zm-208 1l.5 2.5h-1l.5-2.5zm19 0l.5 2.5h-1l.5-2.5zm28 0l.5 2.5h-1l.5-2.5zm141 0l.5 2.5h-1l.5-2.5zm-160 1l.5 2.5h-1l.5-2.5zm196 0l.5 2.5h-1l.5-2.5zm-265 1l.5 2.5h-1l.5-2.5zm33 0l.5 3-15-.5 14-.5.5-2zm180 0l.5 2.5h-1l.5-2.5zm122 0l3 4-3-4zm-363 1l.5 2.5h-1l.5-2.5zm19 1l.5 2.5h-1l.5-2.5zm51 0l.5 2.5h-1l.5-2.5zm98 0l.5 2.5h-1l.5-2.5zm53 0l.5 2.5h-1l.5-2.5zm57 0l.5 2.5h-1l.5-2.5zm-189 1l.5 2.5h-1l.5-2.5zm28 0l.5 2.5h-1l.5-2.5zm139 0l.5 2.5h-1l.5-2.5zm-210 1l.5 2.5h-1l.5-2.5zm52 0l.5 2.5h-1l.5-2.5zm196 0l.5 2.5h-1l.5-2.5zm-267 1l.5 2.5h-1l.5-2.5zm213 0l.5 2.5h-1l.5-2.5zm-241 1l.5 2.5h-1l.5-2.5zm19 0l.5 2.5h-1l.5-2.5zM336 49l21 .5-20 .5-.5 22-.5-23zm69 0l30 .5-29 .5v21h35.5v1H405V49zM82.5 50l.5 2.5h-1l.5-2.5zm96 0l.5 2.5h-1l.5-2.5zm55 0l.5 2.5h-1l.5-2.5zm57 0l.5 2.5h-1l.5-2.5zm-189 1l.5 2.5h-1l.5-2.5zm28 0l.5 2.5h-1l.5-2.5zm137 0l.5 2.5h-1l.5-2.5zm95 0l3 4-3-4zm-305 1l.5 2.5h-1l.5-2.5zm54 0l.5 2.5h-1l.5-2.5zm196 0l.5 2.5h-1l.5-2.5zm-269 1l.5 2.5h-1l.5-2.5zm213 0l.5 2.5h-1l.5-2.5zm-241 1l.5 2.5H9l.5-2.5zm19 0l.5 2.5h-1l.5-2.5zm74 1l.5 3.5h-1l.5-3.5zm75 0l.5 2.5h-1l.5-2.5zm57 0l.5 2.5h-1l.5-2.5zm57 0l.5 2.5h-1l.5-2.5zm-180 1l.5 3.5h-1l.5-3.5zm19 0l.5 2.5h-1l.5-2.5zm135 0l.5 2.5h-1l.5-2.5zm100 0l.5 8.5h-1l.5-8.5zm-310 1l.5 2.5h-1l.5-2.5zm9 0l.5 2.5h-1l.5-2.5zm243 0l.5 2.5h-1l.5-2.5zm74 0l.5 7.5h-1l.5-7.5zm-373 1l.5 2.5H8l.5-2.5zm28 0l.5 2.5h-1l.5-2.5zm213 0l.5 2.5h-1l.5-2.5zm-222 1l.5 2.5h-1l.5-2.5zM192 59h27.5l.5 1.5-1.5-.5h-25l-.5 1.5h-1V59zm-88.5 1l.5 2.5h-1l.5-2.5zm73 0l.5 2.5h-1l.5-2.5zm59 0l.5 2.5h-1l.5-2.5zm57 0l.5 2.5h-1l.5-2.5zm-180 1l.5 2.5h-1l.5-2.5zm19 0l.5 2.5h-1l.5-2.5zm133 0l.5 2.5h-1l.5-2.5zm-229 1l.5 2.5h-1l.5-2.5zm19 0l.5 2.5h-1l.5-2.5zm9 0l.5 2.5h-1l.5-2.5zm245 0l.5 2.5h-1l.5-2.5zm-301 1l.5 2.5H7l.5-2.5zm184 0l.5 2.5h-1l.5-2.5zm29 0l.5 2.5h-1l.5-2.5zm28 0l.5 2.5h-1l.5-2.5zm-222 1l.5 2.5h-1l.5-2.5zm78 1l.5 2.5h-1l.5-2.5zm71 0l.5 2.5h-1l.5-2.5zm61 0l.5 2.5h-1l.5-2.5zm57 0l.5 2.5h-1l.5-2.5zm-231 1l.5 3.5h-1l.5-3.5zm51 0l.5 2.5h-1l.5-2.5zm19 0l.5 2.5h-1l.5-2.5zm131 0l.5 2.5h-1l.5-2.5zm101 0l.5 1.5-4.5 3.5v-1l3.5-2.5.5-1.5zm-330 1l.5 2.5h-1l.5-2.5zm19 0l.5 2.5h-1l.5-2.5zm256 0l.5 2.5h-1l.5-2.5zm-303 1l.5 2.5H6l.5-2.5zm184 0l.5 2.5h-1l.5-2.5zm31 0l.5 2.5h-1l.5-2.5zm26 0l.5 2.5h-1l.5-2.5zm133 0l.5 2.5h-1l.5-2.5zm-355 1l.5 2.5h-1l.5-2.5zm80 1l.5 2.5h-1l.5-2.5zm69 0l.5 2.5h-1l.5-2.5zm63 0l.5 2.5h-1l.5-2.5zm57 0l.5 2.5h-1l.5-2.5zm-180 1l.5 2.5h-1l.5-2.5zm19 0l.5 2.5h-1l.5-2.5zm129 0l.5 2.5h-1l.5-2.5zm94 0l2.5.5-2.5.5v-1zm-323 1l.5 2.5h-1l.5-2.5zm19 0l.5 2.5h-1l.5-2.5zm258 0l.5 2.5h-1l.5-2.5zm-305 1l.5 2.5H5l.5-2.5zm184 0l.5 2.5h-1l.5-2.5zm33 0l.5 2.5h-1l.5-2.5zm24 0l.5 2.5h-1l.5-2.5zm-222 1l.5 2.5h-1l.5-2.5zm149 1l.5 2.5h-1l.5-2.5zm65 0l.5 2.5h-1l.5-2.5zm57 0l.5 2.5h-1l.5-2.5zm-180 1l.5 2.5h-1l.5-2.5zm19 0l.5 2.5h-1l.5-2.5zm127 0l.5 2.5h-1l.5-2.5zm116 0l-5 6 5-6zm-345 1l.5 2.5h-1l.5-2.5zm19 0l.5 2.5h-1l.5-2.5zm260 0l.5 2.5h-1l.5-2.5zm-307 1l.5 2.5H4l.5-2.5zm19 0l.5 2.5h-1l.5-2.5zm165 0l.5 2.5h-1l.5-2.5zm35 0l.5 2.5h-1l.5-2.5zm22 0l.5 2.5h-1l.5-2.5zm-110 2l.5 3.5h-1l.5-3.5zm37 0l.5 2.5h-1l.5-2.5zm67 0l.5 2.5h-1l.5-2.5zm57 0l.5 2.5h-1l.5-2.5zm-246 1l.5 3.5h-1l.5-3.5zm66 0l.5 2.5h-1l.5-2.5zm144 0l.5 2.5h-1l.5-2.5zm-229 1l.5 2.5h-1l.5-2.5zm281 0l.5 3.5h-1l.5-3.5zm-309 1l.5 2.5H3l.5-2.5zm19 0l.5 2.5h-1l.5-2.5zm165 0l.5 2.5h-1l.5-2.5zm37 0l.5 2.5h-1l.5-2.5zm20 0l.5 2.5h-1l.5-2.5zm-186 2l.5 2.5h-1l.5-2.5zm50 0l.5 2.5h-1l.5-2.5zm28 0l.5 2.5h-1l.5-2.5zm219 0l6.5.5-6.5.5v-1zm-306 1l.5 2.5h-1l.5-2.5zm68 0l.5 2.5h-1l.5-2.5zm-87 1l.5 2.5h-1l.5-2.5zm-28 1l.5 2.5H2l.5-2.5zm19 0l.5 2.5h-1l.5-2.5zm36 2l.5 2.5h-1l.5-2.5zm52 0l.5 2.5h-1l.5-2.5zm9 0l.5 2.5h-1l.5-2.5zm19 0l.5 2.5h-1l.5-2.5zm-108 1l.5 2.5h-1l.5-2.5zm19 0l.5 2.5h-1l.5-2.5zm-47 2l.5 2.5H1l.5-2.5zm19 0l.5 2.5h-1l.5-2.5zm36 2l.5 2.5h-1l.5-2.5zm54 0l.5 2.5h-1l.5-2.5zm9 0l.5 2.5h-1l.5-2.5zm19 0l.5 2.5h-1l.5-2.5zm-110 1l.5 2.5h-1l.5-2.5zm19 0l.5 2.5h-1l.5-2.5zm-47 2l.5 2.5H0L.5 98zm19 0l.5 2.5h-1l.5-2.5zm37 1h35l1.5 1.5-.5 1.5-.5-2H56.5v-1zm55 0l.5 3.5h-1l.5-3.5zm180 0l5.5.5-5.5.5v-1zm133 0l5.5.5-5.5.5v-1zm-304 1l.5 2.5h-1l.5-2.5zm19 0l.5 2.5h-1l.5-2.5zm29 0l.5 5h6.5l1.5 1.5v20l.5.5h5.5v-20.5l1.5-1.5h6.5v-4.5h1v5.5h-7.5l-.5.5V128h-8v-21.5l-.5-.5H168l.5-6zm28 0l.5 27h6v-7.5q1.5-3 7.5-1.5v1H204v9h-8l.5-28zm13 0l2.5.5-2.5.5v-1zm78 0l1.5.5-6 4-2.5 7.5-.5-3.5 5.5-7.5 2-1zm12 0l3.5 1.5-1.5.5-2-2zm32 0l.5 7q-3.8-1-5 1.5l-3 5 .5 1.5q-3.2-1.7.5-3.5l3.5-5.5h2.5l.5-6zm47 0l2.5.5-2.5.5v-1zm13 0l.5 27 7 .5-8 .5.5-28zm19 0l.5 6-12-.5 11-.5.5-5zm10 0l1.5.5-2.5 1.5 1-2zm-393 1l.5 2.5h-1l.5-2.5zm19 0l.5 2.5h-1l.5-2.5zm277 0l-1 2 1-2zm59 0l3.5 4.5h-1l-2.5-4.5zm52 0l4.5 5.5h-1l-3.5-5.5zm-219 1l1.5 2.5h-1l-.5-2.5zm202 0l-.5 1.5-1.5 2.5.5-1.5 1.5-2.5zm-399 1l.5 2.5h-1l.5-2.5zm94 1l.5 2.5h-1l.5-2.5zm9 1l.5 2.5h-1l.5-2.5zm19 0l.5 2.5h-1l.5-2.5z"/><path fill="#F8F8F8" stroke="#F8F8F8" opacity=".357" d="M203 105l7 1-.5 2q-1.2-3-5.5-2v7h2.5v1l-3.5-1.5V105zm88.5 0l1.5.5-4 3-.5 1.5-.5-1.5 3.5-3.5zm5 0l6.5 3.5-1.5.5-5-3v-1zm76 0l3.5.5-3.5.5v-1zm52 0l1.5.5-3.5 2.5 2-3zm4 0l3.5 2.5-.5 1.5-2-3-1-1zm-402 1l.5 2.5h-1l.5-2.5zm191 0l.5 5.5h-1l.5-5.5zm160 0q2.5 1 1.5 5.5l-2 1 1-5-.5-1.5zm-360 1l.5 2.5h-1l.5-2.5zm209 1l.5 1.5-1.5 2.5-.5-1.5 1.5-2.5zm93 0l-2 3 2-3zm-319 1l.5 2.5H0l.5-2.5zm113 0l.5 2.5h-1l.5-2.5zm120 0l.5 1.5-2 1 1.5-2.5zm114 0l.5 1.5-2 1 1.5-2.5zm-225 1l.5 2.5h-1l.5-2.5zm19 0l.5 2.5h-1l.5-2.5zm272 0l.5 7.5h-1l.5-7.5zm19 0l.5 7.5h-1l.5-7.5zm-407 1l.5 2.5h-1l.5-2.5zm184 0l-1 2 1-2zm78 0l.5 5.5h-1l.5-5.5zm-271 1l.5 2.5h-1l.5-2.5zm369 0l.5 1.5q-2.4 7.1-13.5 5.5v-1q10.1 1.6 12.5-4.5l.5-1.5zm-40 1l.5 3 3.5-1 .5 2h-5l.5-4zm27 0l2.5.5-2.5.5v-1zm-258 1l.5 2.5h-1l.5-2.5zm9 1l.5 2.5h-1l.5-2.5zm19 0l.5 2.5h-1l.5-2.5zm73 0l-1 2 1-2zm20 0l.5 2-6-.5 5.5-1.5zm23 0l8.5.5-8.5.5v-1zm98 0l1.5 3.5h-1l-.5-3.5zm-332 1l.5 2.5h-1l.5-2.5zm256 0q.3 6.7 4.5 9.5l-3-2q-3-2.7-1.5-7.5zm45 0l1 2-1-2zm-322 1l1 2-1-2zm12 0l.5 2.5h-1l.5-2.5zm273 1l2.5 3.5-3-2 .5-1.5zm30 0l5.5 9 8-.5-5-7 3 2 3 6.5h-8.5l-1.5-1.5-4.5-8.5zm-203 1l.5 2.5h-1l.5-2.5zm9 0l.5 3.5h-1l.5-3.5zm177 0l1.5.5-2.5 1.5 1-2zm130 0l-3 4-3.5-.5q5.1.1 6.5-3.5zm-426 1l4 5-4-5zm18 0l.5 2.5h-1l.5-2.5zm120 0l.5 2.5h-1l.5-2.5zm193 0l.5 1.5-1.5 2.5-.5-1.5 1.5-2.5zm86 0l1 2-1-2zm-408 2l.5 2.5h-1l.5-2.5zm278 0l4.5.5-4.5.5v-1zm123 0l4 5-4-5zm22 1l-3 4-4 1v-1q5.2-.3 7-4zm-321 1l.5 4H22.5l-.5-2.5h1l.5 1.5H116l.5-3zm9 0l.5 3h17.5l.5-1.5h1l-.5 2.5h-18q-2.5-1-1-4zm-114 1l2.5 1.5-1.5.5-1-2zm209 0l.5 2 6.5-1 .5 2h-8l.5-3zm18 0l.5 2 8 .5-7.5.5-1-3zm96 0l.5 2 7 .5-8 .5.5-3zm18 0l.5 2h6.5l1-1 .5 2h-7.5l-1.5-1.5.5-1.5zm-101 2l6.5.5-6.5.5v-1zm16 0l6.5.5-6.5.5v-1zm42 0l6.5.5-6.5.5v-1zm56 0l6.5.5-6.5.5v-1z"/></svg>