<svg width="20" height="24" fill="none" xmlns="http://www.w3.org/2000/svg"><path d="M13.85 0H1.414C1.066 0 .786.28.786.825v22.746c0 .148.28.429.627.429h17.174c.346 0 .627-.28.627-.429V5.562c0-.298-.04-.394-.11-.465L14.117.11a.379.379 0 00-.266-.11z" fill="#F6F6F6"/><path d="M14.071.065v5.078h5.078L14.071.065z" fill="#D9D7CA"/><path d="M6.363 14.282a.688.688 0 01-.414-.14c-.447-.335-.507-.707-.478-.96.078-.698.94-1.429 2.565-2.173a28.77 28.77 0 001.623-4.607c-.428-.93-.843-2.138-.54-2.847.106-.248.238-.438.486-.52.097-.033.344-.074.435-.074.216 0 .406.278.54.45.127.16.414.502-.16 2.914.579 1.194 1.397 2.409 2.181 3.241a8.338 8.338 0 011.44-.153c.67 0 1.077.156 1.243.479.137.266.081.578-.167.925-.239.334-.568.51-.951.51-.521 0-1.128-.329-1.805-.979a20.535 20.535 0 00-3.784 1.21c-.358.76-.701 1.373-1.02 1.822-.44.615-.819.902-1.194.902zm1.14-2.197c-.915.515-1.288.938-1.315 1.176-.005.04-.016.143.184.297.064-.02.437-.19 1.132-1.473zm5.845-1.904c.35.269.435.405.663.405.1 0 .387-.004.519-.19a.682.682 0 00.099-.177c-.053-.028-.123-.085-.504-.085-.216.001-.489.01-.777.047zm-3.201-2.82A30.554 30.554 0 019 10.601c.896-.347 1.87-.65 2.784-.866a14.67 14.67 0 01-1.638-2.376zm-.26-3.627c-.042.014-.57.753.04 1.378.408-.906-.022-1.384-.04-1.378zM18.587 24H1.413a.627.627 0 01-.627-.627v-6.659h18.428v6.66c0 .345-.28.626-.627.626z" fill="#CC4B4C"/><path d="M5.45 22.714h-.703v-4.318H5.99c.184 0 .365.03.545.088.18.059.34.146.483.263.143.117.258.26.346.425.088.166.132.352.132.56 0 .219-.037.417-.111.595a1.243 1.243 0 01-.31.448c-.134.12-.294.215-.481.281-.188.067-.395.1-.621.1H5.45v1.558zm0-3.785v1.711h.645c.086 0 .17-.015.255-.044a.644.644 0 00.401-.422 1.317 1.317 0 00.035-.685.701.701 0 00-.375-.475.948.948 0 00-.433-.084H5.45zm6.358 1.506c0 .355-.038.66-.114.911a2.267 2.267 0 01-.29.633c-.118.17-.25.304-.396.402a2.01 2.01 0 01-.425.22 1.77 1.77 0 01-.375.094c-.113.012-.197.02-.252.02H8.322v-4.319h1.3c.364 0 .683.058.958.173.275.115.504.268.686.46.181.19.317.409.407.653.09.244.135.495.135.753zM9.722 22.2c.477 0 .82-.152 1.031-.457.211-.305.316-.746.316-1.324 0-.18-.02-.358-.064-.534a1.14 1.14 0 00-.249-.477 1.315 1.315 0 00-.5-.346c-.212-.088-.485-.132-.821-.132h-.41v3.27h.697zm3.821-3.27v1.359h1.804v.48h-1.804v1.945h-.715v-4.318h2.7v.533h-1.986z" fill="#fff"/></svg>