<svg width="24" height="24" fill="none" xmlns="http://www.w3.org/2000/svg"><g clip-path="url(#clip0)" fill="#000"><path d="M11.817 8.56l3.436 3.436.016-.18a3.275 3.275 0 00-3.272-3.272l-.18.016z"/><path d="M11.997 6.363a5.455 5.455 0 015.454 5.453 5.37 5.37 0 01-.387 1.99l3.19 3.19A12.952 12.952 0 0024 11.817c-1.892-4.788-6.544-8.18-12.003-8.18-1.527 0-2.988.273-4.346.763l2.356 2.35a5.48 5.48 0 011.99-.386zM1.09 3.39l2.487 2.487.497.497A12.918 12.918 0 000 11.816c1.887 4.788 6.544 8.18 11.997 8.18 1.69 0 3.305-.327 4.783-.922l.463.464 3.18 3.184 1.39-1.385L2.481 2l-1.39 1.39zm6.032 6.027l1.685 1.685a3.457 3.457 0 00-.082.714 3.275 3.275 0 003.272 3.272c.246 0 .48-.033.71-.082l1.684 1.685a5.365 5.365 0 01-2.394.578 5.455 5.455 0 01-5.453-5.453c0-.862.218-1.669.578-2.4z"/></g><defs><clipPath id="clip0"><path fill="#fff" d="M0 0h24v24H0z"/></clipPath></defs></svg>