<svg width="24" height="24" fill="none" xmlns="http://www.w3.org/2000/svg"><g clip-path="url(#clip0)" fill="#1D1D1D"><path d="M12 8.727A3.275 3.275 0 008.727 12 3.275 3.275 0 0012 15.273 3.275 3.275 0 0015.273 12 3.275 3.275 0 0012 8.727z"/><path d="M12 3.818C6.545 3.818 1.887 7.211 0 12c1.887 4.789 6.545 8.182 12 8.182 5.46 0 10.113-3.393 12-8.182-1.887-4.79-6.54-8.182-12-8.182zm0 13.636A5.457 5.457 0 016.545 12 5.457 5.457 0 0112 6.545 5.457 5.457 0 0117.455 12 5.457 5.457 0 0112 17.454z"/></g><defs><clipPath id="clip0"><path fill="#fff" d="M0 0h24v24H0z"/></clipPath></defs></svg>