<svg version="1.0" xmlns="http://www.w3.org/2000/svg" width="682.667" height="682.667" viewBox="0 0 512 512"><path d="M74.5 31.2c-.3.7-17 81.6-37.2 179.8L.7 389.5V403c0 12 .3 14.4 2.7 22 4.9 15 12.7 27.3 25 39.5 7.9 7.7 18.4 16.1 19.2 15.3.3-.3 18.3-86.2 40-190.9s39.7-191.2 40-192.2c.5-1.6 4.8-1.7 70.9-1.7h70.3l1.1 5.1c1.9 8.5 25.1 122.1 25.1 122.5 0 .2-14.2.4-31.5.4s-31.5.3-31.5.7c0 .5-2.9 14.9-6.5 32.2-3.6 17.3-6.3 31.6-6.1 31.8.1.2 34.9.2 77.3.1l77-.3L347.5 159 321.4 30.5l-123.2-.3c-98.1-.2-123.4 0-123.7 1zm279.6 1c0 .7 20.8 102.1 46.2 225.3l46.3 224 32.8.3 32.8.2-.5-2.2c-.3-1.3-17.7-86.9-38.7-190.3C452 186.1 434.2 98.6 433.3 95c-6.6-27.6-28.6-48.7-61.7-59.5-12.9-4.1-17.6-5-17.5-3.3z"/><path d="M117.1 303.2c-20 97-36.6 176.9-36.9 177.5-.3 1 33.3 1.3 166.2 1.3 146.8 0 166.6-.2 166.6-1.5 0-1.2-30.8-152-32.5-159.3l-.5-2.2h-84c-46.2 0-84 .2-84 .4 0 .8-12.1 60.1-12.6 61.8-.5 1.7 3.2 1.8 63.8 2l64.3.3 2.1 8.5c1.2 4.7 2.8 11.5 3.7 15.2l1.5 6.8h-175l.5-2.3c1-3.9 44.7-218.2 44.7-219 0-.4 11.8-.7 26.1-.7 24.4 0 26.1-.1 25.7-1.8-.3-.9-3.1-15.5-6.4-32.4l-5.9-30.8h-91.1l-36.3 176.2z"/></svg>