<svg width="31" height="30" fill="none" xmlns="http://www.w3.org/2000/svg"><path d="M15.63 0C7.43 0 .783 6.716.783 15c0 8.284 6.646 15 14.845 15 8.199 0 14.845-6.716 14.845-15 0-8.284-6.646-15-14.845-15zm7.53 16.622c.691.683 1.423 1.326 2.044 2.08.276.333.535.677.732 1.065.282.553.028 1.159-.462 1.192l-3.041-.001c-.786.066-1.41-.255-1.938-.797-.42-.433-.81-.894-1.216-1.342a2.853 2.853 0 00-.547-.492c-.415-.272-.775-.189-1.013.249-.242.445-.297.939-.32 1.434-.034.725-.25.914-.97.948-1.537.073-2.996-.163-4.352-.946-1.196-.69-2.122-1.666-2.928-2.77-1.571-2.152-2.774-4.514-3.855-6.944-.244-.547-.066-.84.532-.85a82.12 82.12 0 012.978-.002c.404.007.67.24.826.625.537 1.334 1.194 2.603 2.018 3.78.22.313.444.625.763.846.353.245.621.164.787-.233a2.6 2.6 0 00.175-.794c.08-.927.089-1.854-.048-2.777-.085-.578-.406-.951-.977-1.06-.29-.056-.248-.165-.106-.332.245-.29.474-.47.933-.47h3.437c.541.107.663.353.736.904l.003 3.859c-.006.213.106.845.485.985.304.101.505-.145.686-.34.824-.883 1.411-1.926 1.937-3.005.232-.476.432-.969.627-1.462.144-.365.37-.545.777-.539l3.309.004c.097 0 .196.001.293.018.558.097.71.339.538.889-.272.863-.8 1.583-1.315 2.304-.553.772-1.142 1.517-1.69 2.293-.503.709-.463 1.066.161 1.681z" fill="#fff" fill-opacity=".5"/></svg>